<svg width="34" height="34" viewBox="0 0 34 34" fill="none" xmlns="http://www.w3.org/2000/svg">
<path d="M13.9834 16.1625C13.9834 16.1625 16.9475 15.9373 16.9475 12.3906C16.9475 8.84681 14.9372 7.0999 11.8644 7.0999L1.33789 7.08325V26.6675H12.1092C12.1092 26.6675 17.4949 26.8379 17.4949 20.7922C17.4949 20.7922 17.8905 16.1625 13.9834 16.1625ZM5.25474 10.0209H10.6404C10.6404 10.0209 12.4833 10.0512 12.4833 12.4405C12.4833 14.9169 10.6404 14.9169 10.6404 14.9169H5.25474V10.0209ZM11.13 23.7299H5.25474V17.8546H11.13C11.13 17.8546 14.0676 17.8849 14.0676 20.7922C14.0676 23.6995 11.553 23.7299 11.13 23.7299Z" fill="#0F0F0F"/>
<path d="M25.8184 11.9795C18.4616 11.9795 18.4743 19.3236 18.4743 19.3236C18.4743 19.3236 17.9847 26.6677 25.8184 26.6677C25.8184 26.6677 32.6729 26.6677 32.6729 20.7924H28.756C28.756 20.7924 28.756 23.73 25.8184 23.73C25.8184 23.73 22.8808 23.73 22.8808 19.8132C22.8808 19.8132 30.7145 19.8132 32.6729 19.8132C32.6729 17.8548 32.6729 11.9795 25.8184 11.9795ZM22.8808 17.8548C22.8808 17.8548 22.8161 14.9171 25.8184 14.9171C28.8197 14.9171 28.756 17.8548 28.756 17.8548H22.8808Z" fill="#0F0F0F"/>
<path d="M29.7356 9.04175H21.9019V11.0002H29.7356V9.04175Z" fill="#0F0F0F"/>
</svg>
