<svg width="34" height="34" viewBox="0 0 34 34" fill="none" xmlns="http://www.w3.org/2000/svg">
<path d="M32.3291 7.31323C31.3285 7.74387 30.2765 8.04374 29.1992 8.20544C29.7029 8.11909 30.444 7.21249 30.739 6.84554C31.1872 6.29202 31.5287 5.66013 31.7463 4.98197C31.7463 4.93161 31.7967 4.85965 31.7463 4.82368C31.721 4.80982 31.6925 4.80256 31.6636 4.80256C31.6347 4.80256 31.6062 4.80982 31.5808 4.82368C30.411 5.45716 29.166 5.94065 27.8753 6.26272C27.8303 6.27647 27.7824 6.2777 27.7368 6.26629C27.6912 6.25488 27.6495 6.23126 27.6163 6.19797C27.5158 6.07833 27.4076 5.96537 27.2925 5.85979C26.766 5.38811 26.1687 5.00205 25.5225 4.71575C24.6501 4.35784 23.7078 4.20284 22.7667 4.26245C21.8536 4.32012 20.9621 4.56504 20.1476 4.98197C19.3456 5.42155 18.6408 6.01872 18.0754 6.73761C17.4807 7.47753 17.0513 8.33623 16.8162 9.25594C16.6223 10.1308 16.6004 11.035 16.7515 11.9182C16.7515 12.0693 16.7515 12.0909 16.622 12.0693C11.4918 11.3138 7.28255 9.49338 3.84323 5.58637C3.69213 5.41369 3.61298 5.41369 3.49066 5.58637C1.99405 7.86006 2.72077 11.4577 4.59153 13.2349C4.84337 13.4723 5.10239 13.7026 5.37581 13.9184C4.51808 13.8576 3.6813 13.6251 2.91504 13.2349C2.77114 13.1414 2.69199 13.1917 2.6848 13.3644C2.6644 13.6038 2.6644 13.8445 2.6848 14.0839C2.83493 15.2313 3.28709 16.3182 3.99505 17.2335C4.703 18.1487 5.64135 18.8596 6.71413 19.2933C6.97564 19.4053 7.24814 19.4897 7.52719 19.5451C6.73314 19.7014 5.91874 19.7258 5.11678 19.6171C4.9441 19.5811 4.87934 19.6746 4.9441 19.8401C6.0018 22.7182 8.29708 23.596 9.98076 24.0853C10.211 24.1213 10.4413 24.1213 10.7003 24.1789C10.7003 24.1789 10.7003 24.1788 10.6571 24.222C10.1606 25.1286 8.15317 25.7402 7.23218 26.0568C5.55114 26.6606 3.75884 26.8914 1.97966 26.7332C1.69905 26.69 1.63429 26.6972 1.56234 26.7332C1.49039 26.7691 1.56234 26.8483 1.64149 26.9202C2.00125 27.1577 2.36101 27.3663 2.73516 27.5678C3.84902 28.1753 5.02659 28.6579 6.24644 29.0069C12.5638 30.7481 19.6727 29.4673 24.4144 24.7545C28.1415 21.0561 29.4511 15.9547 29.4511 10.8461C29.4511 10.6518 29.6885 10.5367 29.8252 10.436C30.7682 9.70125 31.5995 8.83357 32.2932 7.86006C32.4133 7.71495 32.4749 7.53018 32.4659 7.34201C32.4659 7.23408 32.4659 7.25567 32.3291 7.31323Z" fill="#0F0F0F"/>
</svg>
