<svg width="34" height="34" viewBox="0 0 34 34" fill="none" xmlns="http://www.w3.org/2000/svg">
<path d="M12.2765 16.9999C12.2765 14.392 14.3913 12.2773 17.0008 12.2773C19.6103 12.2773 21.7262 14.392 21.7262 16.9999C21.7262 19.6078 19.6103 21.7225 17.0008 21.7225C14.3913 21.7225 12.2765 19.6078 12.2765 16.9999ZM9.72205 16.9999C9.72205 21.0175 12.9807 24.2743 17.0008 24.2743C21.0209 24.2743 24.2796 21.0175 24.2796 16.9999C24.2796 12.9822 21.0209 9.72549 17.0008 9.72549C12.9807 9.72549 9.72205 12.9822 9.72205 16.9999ZM22.8667 9.43705C22.8666 9.77328 22.9662 10.102 23.153 10.3816C23.3398 10.6613 23.6054 10.8793 23.9161 11.0081C24.2269 11.1369 24.5689 11.1707 24.8989 11.1052C25.2289 11.0397 25.5321 10.8779 25.77 10.6403C26.008 10.4026 26.1702 10.0998 26.2359 9.77005C26.3017 9.44031 26.2681 9.09849 26.1395 8.7878C26.0109 8.47712 25.793 8.21153 25.5133 8.02462C25.2337 7.83771 24.9048 7.73787 24.5684 7.73774H24.5677C24.1168 7.73795 23.6843 7.91703 23.3654 8.23565C23.0465 8.55427 22.8671 8.98637 22.8667 9.43705ZM11.2741 28.5312C9.89204 28.4683 9.14087 28.2382 8.64168 28.0438C7.97987 27.7864 7.50767 27.4797 7.0112 26.9842C6.51473 26.4887 6.20742 26.0172 5.9509 25.3558C5.75631 24.8571 5.5261 24.1062 5.46328 22.725C5.39456 21.2317 5.38084 20.7832 5.38084 17C5.38084 13.2168 5.39569 12.7695 5.46328 11.275C5.52622 9.89379 5.75812 9.14431 5.9509 8.64418C6.20855 7.98276 6.51541 7.51085 7.0112 7.01467C7.50699 6.5185 7.97874 6.21137 8.64168 5.95501C9.14065 5.76053 9.89204 5.53046 11.2741 5.46768C12.7682 5.399 13.2171 5.38528 17.0008 5.38528C20.7845 5.38528 21.2338 5.40013 22.7293 5.46768C24.1113 5.53058 24.8612 5.76234 25.3616 5.95501C26.0235 6.21137 26.4957 6.51918 26.9921 7.01467C27.4886 7.51017 27.7948 7.98276 28.0524 8.64418C28.247 9.14284 28.4772 9.89379 28.54 11.275C28.6088 12.7695 28.6225 13.2168 28.6225 17C28.6225 20.7832 28.6088 21.2305 28.54 22.725C28.4771 24.1062 28.2458 24.8569 28.0524 25.3558C27.7948 26.0172 27.4879 26.4891 26.9921 26.9842C26.4963 27.4792 26.0235 27.7864 25.3616 28.0438C24.8627 28.2383 24.1113 28.4684 22.7293 28.5312C21.2351 28.5999 20.7863 28.6136 17.0008 28.6136C13.2154 28.6136 12.7678 28.5999 11.2741 28.5312ZM11.1567 2.91905C9.64766 2.98772 8.61651 3.22686 7.71599 3.57706C6.78338 3.9387 5.99388 4.42388 5.20495 5.21109C4.41602 5.9983 3.9318 6.78857 3.56993 7.72063C3.21953 8.62117 2.98025 9.65114 2.91153 11.1593C2.84167 12.6698 2.82568 13.1527 2.82568 16.9999C2.82568 20.8471 2.84167 21.33 2.91153 22.8405C2.98025 24.3487 3.21953 25.3786 3.56993 26.2791C3.9318 27.2106 4.41613 28.0018 5.20495 28.7887C5.99377 29.5755 6.78338 30.06 7.71599 30.4227C8.61821 30.7729 9.64766 31.012 11.1567 31.0807C12.6689 31.1494 13.1513 31.1665 17.0008 31.1665C20.8503 31.1665 21.3335 31.1505 22.8449 31.0807C24.3541 31.012 25.3845 30.7729 26.2856 30.4227C27.2177 30.06 28.0077 29.5759 28.7967 28.7887C29.5856 28.0015 30.0688 27.2106 30.4317 26.2791C30.7821 25.3786 31.0225 24.3486 31.0901 22.8405C31.1588 21.3289 31.1748 20.8471 31.1748 16.9999C31.1748 13.1527 31.1588 12.6698 31.0901 11.1593C31.0214 9.65103 30.7821 8.6206 30.4317 7.72063C30.0688 6.78914 29.5844 5.99955 28.7967 5.21109C28.009 4.42263 27.2177 3.9387 26.2868 3.57706C25.3846 3.22686 24.354 2.98659 22.8461 2.91905C21.3347 2.85037 20.8515 2.83325 17.0019 2.83325C13.1524 2.83325 12.6689 2.84923 11.1567 2.91905Z" fill="#0F0F0F"/>
<path d="M12.2765 16.9999C12.2765 14.392 14.3913 12.2773 17.0008 12.2773C19.6103 12.2773 21.7262 14.392 21.7262 16.9999C21.7262 19.6078 19.6103 21.7225 17.0008 21.7225C14.3913 21.7225 12.2765 19.6078 12.2765 16.9999ZM9.72205 16.9999C9.72205 21.0175 12.9807 24.2743 17.0008 24.2743C21.0209 24.2743 24.2796 21.0175 24.2796 16.9999C24.2796 12.9822 21.0209 9.72549 17.0008 9.72549C12.9807 9.72549 9.72205 12.9822 9.72205 16.9999ZM22.8667 9.43705C22.8666 9.77328 22.9662 10.102 23.153 10.3816C23.3398 10.6613 23.6054 10.8793 23.9161 11.0081C24.2269 11.1369 24.5689 11.1707 24.8989 11.1052C25.2289 11.0397 25.5321 10.8779 25.77 10.6403C26.008 10.4026 26.1702 10.0998 26.2359 9.77005C26.3017 9.44031 26.2681 9.09849 26.1395 8.7878C26.0109 8.47712 25.793 8.21153 25.5133 8.02462C25.2337 7.83771 24.9048 7.73787 24.5684 7.73774H24.5677C24.1168 7.73795 23.6843 7.91703 23.3654 8.23565C23.0465 8.55427 22.8671 8.98637 22.8667 9.43705ZM11.2741 28.5312C9.89204 28.4683 9.14087 28.2382 8.64168 28.0438C7.97987 27.7864 7.50767 27.4797 7.0112 26.9842C6.51473 26.4887 6.20742 26.0172 5.9509 25.3558C5.75631 24.8571 5.5261 24.1062 5.46328 22.725C5.39456 21.2317 5.38084 20.7832 5.38084 17C5.38084 13.2168 5.39569 12.7695 5.46328 11.275C5.52622 9.89379 5.75812 9.14431 5.9509 8.64418C6.20855 7.98276 6.51541 7.51085 7.0112 7.01467C7.50699 6.5185 7.97874 6.21137 8.64168 5.95501C9.14065 5.76053 9.89204 5.53046 11.2741 5.46768C12.7682 5.399 13.2171 5.38528 17.0008 5.38528C20.7845 5.38528 21.2338 5.40013 22.7293 5.46768C24.1113 5.53058 24.8612 5.76234 25.3616 5.95501C26.0235 6.21137 26.4957 6.51918 26.9921 7.01467C27.4886 7.51017 27.7948 7.98276 28.0524 8.64418C28.247 9.14284 28.4772 9.89379 28.54 11.275C28.6088 12.7695 28.6225 13.2168 28.6225 17C28.6225 20.7832 28.6088 21.2305 28.54 22.725C28.4771 24.1062 28.2458 24.8569 28.0524 25.3558C27.7948 26.0172 27.4879 26.4891 26.9921 26.9842C26.4963 27.4792 26.0235 27.7864 25.3616 28.0438C24.8627 28.2383 24.1113 28.4684 22.7293 28.5312C21.2351 28.5999 20.7863 28.6136 17.0008 28.6136C13.2154 28.6136 12.7678 28.5999 11.2741 28.5312ZM11.1567 2.91905C9.64766 2.98772 8.61651 3.22686 7.71599 3.57706C6.78338 3.9387 5.99388 4.42388 5.20495 5.21109C4.41602 5.9983 3.9318 6.78857 3.56993 7.72063C3.21953 8.62117 2.98025 9.65114 2.91153 11.1593C2.84167 12.6698 2.82568 13.1527 2.82568 16.9999C2.82568 20.8471 2.84167 21.33 2.91153 22.8405C2.98025 24.3487 3.21953 25.3786 3.56993 26.2791C3.9318 27.2106 4.41613 28.0018 5.20495 28.7887C5.99377 29.5755 6.78338 30.06 7.71599 30.4227C8.61821 30.7729 9.64766 31.012 11.1567 31.0807C12.6689 31.1494 13.1513 31.1665 17.0008 31.1665C20.8503 31.1665 21.3335 31.1505 22.8449 31.0807C24.3541 31.012 25.3845 30.7729 26.2856 30.4227C27.2177 30.06 28.0077 29.5759 28.7967 28.7887C29.5856 28.0015 30.0688 27.2106 30.4317 26.2791C30.7821 25.3786 31.0225 24.3486 31.0901 22.8405C31.1588 21.3289 31.1748 20.8471 31.1748 16.9999C31.1748 13.1527 31.1588 12.6698 31.0901 11.1593C31.0214 9.65103 30.7821 8.6206 30.4317 7.72063C30.0688 6.78914 29.5844 5.99955 28.7967 5.21109C28.009 4.42263 27.2177 3.9387 26.2868 3.57706C25.3846 3.22686 24.354 2.98659 22.8461 2.91905C21.3347 2.85037 20.8515 2.83325 17.0019 2.83325C13.1524 2.83325 12.6689 2.84923 11.1567 2.91905Z" fill="#0F0F0F"/>
</svg>
